<svg width="29" height="29" viewBox="0 0 29 29" fill="none" xmlns="http://www.w3.org/2000/svg">
<path d="M27.25 28.9999C26.875 28.9999 26.625 28.8749 26.375 28.6249L19.375 21.625C18.875 21.125 18.875 20.375 19.375 19.875C19.875 19.375 20.625 19.375 21.125 19.875L28.1249 26.875C28.6249 27.375 28.6249 28.125 28.1249 28.6249C28 28.8749 27.625 28.9999 27.25 28.9999Z" fill="white"/>
<path d="M12.4999 24.8749C5.62497 24.8749 0 19.2499 0 12.3749C0 5.62497 5.62497 0 12.4999 0C19.3749 0 24.9999 5.62497 24.9999 12.4999C24.8749 19.3749 19.3749 24.8749 12.4999 24.8749ZM12.4999 2.49999C6.99996 2.49999 2.49999 6.99996 2.49999 12.4999C2.49999 17.9999 6.99996 22.4999 12.4999 22.4999C17.9999 22.4999 22.4999 17.9999 22.4999 12.4999C22.3749 6.99996 17.9999 2.49999 12.4999 2.49999Z" fill="white"/>
</svg>
