<svg width="86.856079" height="87.498047" viewBox="0 0 86.8561 87.498" fill="none" xmlns="http://www.w3.org/2000/svg" xmlns:xlink="http://www.w3.org/1999/xlink">
	<desc>
			Created with Pixso.
	</desc>
	<defs/>
	<path id="Vector" d="M43.7845 10.4883C25.2805 10.4883 10.2266 25.5472 10.2266 44.0573C10.2266 62.5663 25.2805 77.6233 43.7845 77.6233C62.2936 77.6233 77.3516 62.5653 77.3516 44.0573C77.3516 43.2283 76.6796 42.5573 75.8516 42.5573L55.2845 42.5573C49.7617 42.5573 45.2845 38.0801 45.2845 32.5573L45.2845 11.9883C45.2845 11.1593 44.6135 10.4883 43.7845 10.4883ZM72.0275 55.749C67.4274 66.819 56.5004 74.6233 43.7845 74.6233C26.9346 74.6233 13.2266 60.9113 13.2266 44.0573C13.2266 31.3417 21.0273 20.4144 32.093 15.8135C37.3687 13.62 42.2845 18.3086 42.2845 24.022L42.2845 44.0573C42.2845 44.8853 42.9556 45.5573 43.7845 45.5573L63.818 45.5573C69.5314 45.5573 74.22 50.473 72.0275 55.749Z" fill="#00A3FF" fill-opacity="1.000000" fill-rule="nonzero"/>
	<path id="Vector" d="M72.3237 72.8401C71.5017 73.65 70.6288 74.4231 69.7347 75.1621C68.1608 76.457 66.4847 77.6471 64.7428 78.692C45.4797 90.259 20.3988 84.0011 8.83374 64.743C3.22974 55.4121 1.59473 44.458 4.23071 33.8971C6.8667 23.338 13.4568 14.437 22.7877 8.83411C32.1188 3.229 43.0737 1.59412 53.6317 4.229C62.6812 6.48682 70.5056 11.6547 76.0858 18.9589C76.8396 19.9454 75.8727 21.223 74.6908 20.843C73.9008 20.5901 73.0568 21.025 72.8037 21.812C72.5498 22.6011 72.9838 23.4451 73.7727 23.6991L80.7397 25.9381C80.8917 25.9871 81.0477 26.01 81.1987 26.01C81.8308 26.01 82.4177 25.609 82.6248 24.9771L84.9447 17.896C85.2028 17.108 84.7727 16.2611 83.9857 16.0031C83.1958 15.744 82.3507 16.1741 82.0928 16.9611C81.6156 18.4177 79.625 18.6718 78.7053 17.4456C72.6991 9.43726 64.2035 3.77332 54.3588 1.31702C43.0208 -1.50891 31.2607 0.246094 21.2428 6.26208C11.2257 12.2781 4.14978 21.8351 1.3197 33.171C-1.51025 44.509 0.244751 56.27 6.26074 66.2881C14.4558 79.9331 28.9668 87.498 43.8328 87.498C51.4948 87.498 59.2528 85.4871 66.2867 81.264C67.0477 80.807 67.7937 80.3181 68.5298 79.8131C68.5627 79.7941 68.5988 79.786 68.6298 79.765C69.5238 79.151 70.3838 78.51 71.1827 77.864C71.3258 77.749 71.4637 77.624 71.6057 77.5071C71.7037 77.427 71.8048 77.3501 71.9017 77.269C71.9277 77.2471 71.9468 77.2211 71.9718 77.198C72.8158 76.4871 73.6448 75.75 74.4298 74.9771C75.0198 74.396 75.0277 73.446 74.4458 72.8561C73.8647 72.2661 72.9127 72.2581 72.3237 72.8401Z" fill="#00A3FF" fill-opacity="1.000000" fill-rule="nonzero"/>
	<path id="Vector" d="M82.1511 61.4659C81.4102 61.0929 80.5082 61.3889 80.1351 62.1279C79.0571 64.2629 77.7981 66.299 76.3951 68.1799C75.9001 68.844 76.0371 69.7839 76.7001 70.2799C76.9701 70.481 77.2842 70.5779 77.5962 70.5779C78.0531 70.5779 78.5051 70.37 78.7991 69.975C80.3062 67.954 81.6561 65.7699 82.8131 63.4819C83.1862 62.741 82.8901 61.839 82.1511 61.4659Z" fill="#00A3FF" fill-opacity="1.000000" fill-rule="nonzero"/>
	<path id="Vector" d="M85.6219 49.7273C84.812 49.5873 84.027 50.1223 83.879 50.9373C83.48 53.1533 82.895 55.3503 82.142 57.4653C81.864 58.2454 82.272 59.1044 83.052 59.3813C83.218 59.4413 83.3879 59.4683 83.5551 59.4683C84.171 59.4683 84.749 59.0853 84.968 58.4713C85.776 56.2013 86.403 53.8463 86.832 51.4703C86.979 50.6553 86.438 49.8743 85.6219 49.7273Z" fill="#00A3FF" fill-opacity="1.000000" fill-rule="nonzero"/>
</svg>
