<svg width="15.596436" height="13.818848" viewBox="0 0 15.5964 13.8188" fill="none" xmlns="http://www.w3.org/2000/svg" xmlns:xlink="http://www.w3.org/1999/xlink">
	<desc>
			Created with Pixso.
	</desc>
	<defs/>
	<path id="Vector" d="M13.9933 3.44385C14.0032 3.59521 14.0032 3.74609 14.0032 3.89746C14.0032 8.50732 10.7869 13.8188 4.90857 13.8188C3.09753 13.8188 1.41516 13.2466 0 12.2534C0.257324 12.2856 0.5047 12.2964 0.771912 12.2964C2.26624 12.2964 3.64178 11.7461 4.7403 10.8066C3.33502 10.7744 2.15735 9.77051 1.75165 8.38818C1.94958 8.4209 2.14746 8.44238 2.35529 8.44238C2.64227 8.44238 2.92932 8.39941 3.19647 8.32373C1.73187 7.99951 0.633362 6.59619 0.633362 4.90137L0.633362 4.8584C1.05884 5.11719 1.55371 5.2793 2.07819 5.30078C1.21722 4.6748 0.653137 3.60596 0.653137 2.39648C0.653137 1.74902 0.811462 1.15527 1.08856 0.636719C2.66205 2.75293 5.02728 4.13477 7.67944 4.28613C7.63 4.02686 7.60028 3.75684 7.60028 3.4873C7.60028 1.56543 9.02533 0 10.7968 0C11.7171 0 12.5484 0.420898 13.1323 1.10107C13.8547 0.950195 14.5474 0.658691 15.161 0.259277C14.9235 1.06885 14.4188 1.74902 13.7557 2.18066C14.399 2.10547 15.0225 1.91064 15.5964 1.64111C15.1611 2.33203 14.6168 2.94727 13.9933 3.44385Z" fill="#0E0E0E" fill-opacity="1.000000" fill-rule="nonzero"/>
</svg>
