<svg width="34.010742" height="34.010742" viewBox="0 0 34.0107 34.0107" fill="none" xmlns="http://www.w3.org/2000/svg" xmlns:xlink="http://www.w3.org/1999/xlink">
	<desc>
			Created with Pixso.
	</desc>
	<defs/>
	<rect id="Rectangle 2" rx="17.005371" width="34.010742" height="34.010742" fill="#FFFFFF" fill-opacity="1.000000"/>
	<path id="Vector" d="M24.2799 9.83496L10.4675 9.83496C9.83453 9.83496 9.32031 10.3257 9.32031 10.9282L9.32031 23.9043C9.32031 24.5068 9.83453 24.9976 10.4675 24.9976L24.2799 24.9976C24.9128 24.9976 25.4307 24.5068 25.4307 23.9043L25.4307 10.9282C25.4307 10.3257 24.9128 9.83496 24.2799 9.83496ZM14.1894 22.8315L11.8016 22.8315L11.8016 15.5952L14.193 15.5952L14.193 22.8315L14.1894 22.8315ZM12.9955 14.6069C12.2296 14.6069 11.611 14.0215 11.611 13.3042C11.611 12.5864 12.2296 12.001 12.9955 12.001C13.7579 12.001 14.3799 12.5864 14.3799 13.3042C14.3799 14.0249 13.7615 14.6069 12.9955 14.6069ZM23.14 22.8315L20.7522 22.8315L20.7522 19.3115C20.7522 18.4722 20.7342 17.3926 19.5115 17.3926C18.2673 17.3926 18.0767 18.3066 18.0767 19.2505L18.0767 22.8315L15.689 22.8315L15.689 15.5952L17.9796 15.5952L17.9796 16.5835L18.012 16.5835C18.332 16.0151 19.1124 15.416 20.2739 15.416C22.6905 15.416 23.14 16.9155 23.14 18.8647L23.14 22.8315Z" fill="#0E0E0E" fill-opacity="1.000000" fill-rule="nonzero"/>
</svg>
