<svg width="109.017700" height="88.355103" viewBox="0 0 109.018 88.3551" fill="none" xmlns="http://www.w3.org/2000/svg" xmlns:xlink="http://www.w3.org/1999/xlink">
	<desc>
			Created with Pixso.
	</desc>
	<defs/>
	<path id="Vector" d="M59.3333 0.257324C58.8178 -0.0678101 58.1675 -0.0856323 57.6365 0.208313C57.1031 0.502258 56.7736 1.06232 56.7736 1.67023L56.7736 4.48938C56.7736 8.04614 53.8903 10.9294 50.3336 10.9294C49.9572 10.9294 49.5909 11.0574 49.2959 11.2913L29.5818 26.9325C29.1821 27.2498 28.9493 27.7308 28.9493 28.2408L28.9493 36.2429C28.9493 36.6871 29.1263 37.1135 29.4426 37.4276C29.7577 37.7404 30.1652 37.8963 30.6295 37.913L40.8065 37.8492C43.948 37.8295 45.5286 42.3138 43.338 44.5656C37.4235 50.646 34.3394 59.5566 32.7939 65.9621C32.6737 66.4587 32.7884 66.9843 33.1057 67.3862C33.4219 67.7881 33.9062 68.0231 34.4185 68.0231L69.9007 68.0153C70.4151 68.0153 70.9006 67.7781 71.2179 67.3728C71.5352 66.9675 71.6465 66.4376 71.5208 65.9387C70.3862 61.4205 69.8406 57.6605 69.9408 55.0662C70.0109 53.2469 71.1589 51.8129 72.7466 49.8265C75.6615 46.1801 79.6542 41.1864 79.6119 30.079C79.5406 13.1918 60.1583 0.777283 59.3333 0.257324ZM70.1368 47.7422C68.3776 49.9434 66.7152 52.0211 66.6017 54.9382C66.4079 59.9801 62.996 64.6786 57.9504 64.6786L49.6945 64.6807C43.0915 64.6807 38.159 58.2574 41.4957 52.5596C42.6956 50.5107 44.0972 48.5751 45.7318 46.8949C53.7195 38.6835 58.6653 37.7248 58.6942 37.7192C59.5593 37.5879 60.1761 36.8107 60.1082 35.9367C60.0392 35.0671 59.3144 34.3979 58.4437 34.3979C58.4404 34.3979 58.437 34.3979 58.4326 34.3979L36.0166 34.5392C33.9626 34.5522 32.2907 32.8907 32.2907 30.8367C32.2907 29.7067 32.8068 28.6385 33.692 27.9362L48.1857 16.4369C49.9537 15.0342 52.1442 14.2708 54.4011 14.2708L58.4437 14.2708C59.3656 14.2708 60.1138 13.5237 60.1138 12.6006C60.1138 9.44336 63.6812 7.72083 65.926 9.94086C70.895 14.8549 76.2383 22.0129 76.2717 30.0935C76.3084 40.0218 72.8869 44.3018 70.1368 47.7422Z" fill="#00A3FF" fill-opacity="1.000000" fill-rule="nonzero"/>
	<path id="Vector" d="M72.3688 72.9922L32.8926 72.9922C31.9697 72.9922 31.2225 73.7404 31.2225 74.6623C31.2225 74.7614 31.2225 74.8594 31.2225 74.9585L31.168 86.6783C31.1658 87.1214 31.3406 87.549 31.6545 87.8641C31.9674 88.178 32.3939 88.3551 32.8381 88.3551L72.3688 88.3551C73.2906 88.3551 74.0389 87.6069 74.0389 86.6849L74.0389 74.7224C74.0389 74.7124 74.0356 74.7024 74.0356 74.6924C74.0356 74.6824 74.0389 74.6723 74.0389 74.6623C74.0389 73.7404 73.2906 72.9922 72.3688 72.9922ZM38.8784 85.017C36.4724 85.017 34.5251 83.0607 34.5361 80.6547C34.5472 78.2643 36.488 76.3325 38.8784 76.3325L66.3563 76.3325C68.7545 76.3325 70.6987 78.2766 70.6987 80.6747C70.6987 83.0729 68.7545 85.017 66.3563 85.017L38.8784 85.017Z" fill="#00A3FF" fill-opacity="1.000000" fill-rule="nonzero"/>
	<path id="Vector" d="M17.1884 57.8643C16.537 57.2119 15.4792 57.2119 14.8268 57.8643C11.5195 61.171 6.15814 61.171 2.85089 57.8643C2.19843 57.2119 1.14069 57.2119 0.489319 57.8643C-0.163086 58.5168 -0.163086 59.5734 0.489319 60.2259C3.79602 63.5314 3.79602 68.8918 0.489319 72.1973C-0.163086 72.8498 -0.163086 73.9064 0.489319 74.5589C0.814453 74.8851 1.2431 75.0477 1.67065 75.0477C2.09821 75.0477 2.52576 74.8851 2.85199 74.5589C6.15924 71.2523 11.5207 71.2523 14.8279 74.5589C15.1541 74.8851 15.5817 75.0477 16.0092 75.0477C16.4368 75.0477 16.8643 74.8851 17.1906 74.5589C17.843 73.9064 17.843 72.8498 17.1906 72.1973C13.8839 68.8918 13.8839 63.5314 17.1906 60.2259C17.8408 59.5734 17.8408 58.5157 17.1884 57.8643Z" fill="#00A3FF" fill-opacity="1.000000" fill-rule="nonzero"/>
	<path id="Vector" d="M98.3467 38.7051C92.4634 38.7051 87.6758 43.4916 87.6758 49.3749C87.6758 55.2593 92.4634 60.047 98.3467 60.047C104.23 60.047 109.018 55.2593 109.018 49.3749C109.018 43.4916 104.23 38.7051 98.3467 38.7051ZM98.3467 56.7068C94.304 56.7068 91.0161 53.4177 91.0161 49.3749C91.0161 45.3333 94.304 42.0453 98.3467 42.0453C102.39 42.0453 105.677 45.3333 105.677 49.3749C105.677 53.4177 102.39 56.7068 98.3467 56.7068Z" fill="#00A3FF" fill-opacity="1.000000" fill-rule="nonzero"/>
</svg>
