<svg width="87.000000" height="86.000000" viewBox="0 0 87 86" fill="none" xmlns="http://www.w3.org/2000/svg" xmlns:xlink="http://www.w3.org/1999/xlink">
	<desc>
			Created with Pixso.
	</desc>
	<defs/>
	<path id="Vector" d="M86.904 10.8894C86.6976 10.3577 86.1907 10.0026 85.6196 9.9895L85.5955 9.98889C80.9814 9.88123 77.3273 6.05505 77.4319 1.44092C77.4451 0.871582 77.1116 0.349365 76.5886 0.120117C76.0646 -0.109985 75.455 -0.00390625 75.0413 0.390625L65.0312 9.92273C64.7598 10.1802 64.6025 10.5353 64.593 10.9082L64.403 18.7954C64.3871 19.4574 64.1165 20.0878 63.6476 20.5552C62.6705 21.5293 61.1046 21.5511 60.0314 20.6841C53.6968 15.5658 45.6358 12.4929 36.8667 12.4929C16.5384 12.4929 0 28.9841 0 49.2535C0 69.5154 16.5384 86 36.8667 86C57.195 86 73.7334 69.5154 73.7334 49.2535C73.7334 40.3883 70.5661 32.25 65.3049 25.8947C64.5458 24.9777 64.5659 23.6248 65.4089 22.7842C65.8358 22.3586 66.4179 22.126 67.0205 22.14L75.536 22.3379C75.5473 22.3379 75.5577 22.3379 75.569 22.3379C75.9318 22.3379 76.2814 22.1989 76.5443 21.948L86.5619 12.4178C86.9765 12.0242 87.1113 11.4211 86.904 10.8894ZM70.9055 49.2535C70.9055 67.9617 55.6355 83.1818 36.8657 83.1818C18.096 83.1818 2.82599 67.9617 2.82599 49.2535C2.82599 30.5378 18.096 15.3112 36.8657 15.3112C44.3509 15.3112 51.2766 17.7347 56.9014 21.8336C58.6097 23.0785 58.6505 25.5359 57.1536 27.0283C55.7593 28.4182 53.5356 28.4523 51.9111 27.34C47.6271 24.4069 42.4451 22.6873 36.8667 22.6873C22.1771 22.6873 10.2268 34.6045 10.2268 49.2526C10.2268 63.8969 22.1771 75.8103 36.8667 75.8103C51.561 75.8103 63.5141 63.8969 63.5141 49.2526C63.5141 43.6967 61.7931 38.5347 58.8554 34.266C57.734 32.6365 57.7676 30.4 59.1685 29.0035C60.6588 27.5178 63.1034 27.5581 64.3488 29.2545C68.4691 34.8673 70.9055 41.7816 70.9055 49.2535ZM45.3766 49.2488C45.3766 53.9261 41.5594 57.7307 36.8676 57.7307C32.1759 57.7307 28.3586 53.9252 28.3586 49.2488C28.3586 44.5715 32.1759 40.766 36.8676 40.766C39.6144 40.766 40.0161 44.1139 38.0708 46.0531L35.866 48.2512C35.3138 48.8016 35.3138 49.6931 35.866 50.2437C36.1421 50.5189 36.5039 50.656 36.8657 50.656C37.2276 50.656 37.5894 50.5189 37.8655 50.2437L40.0759 48.0402C42.0226 46.0995 45.3766 46.5 45.3766 49.2488ZM38.6725 38.0924C38.0847 37.9973 37.4815 37.9479 36.8667 37.9479C30.6164 37.9479 25.5308 43.0178 25.5308 49.2488C25.5308 55.4799 30.6155 60.5488 36.8667 60.5488C43.1179 60.5488 48.2026 55.4799 48.2026 49.2488C48.2026 48.6523 48.1556 48.0669 48.0651 47.4957C47.5559 44.2808 47.5398 40.5972 49.8449 38.2988C52.462 35.6896 56.8311 35.8054 58.4152 39.1443C59.871 42.2128 60.6863 45.6395 60.6862 49.2535C60.6862 62.344 50.0005 72.993 36.8657 72.993C23.7347 72.993 13.0528 62.344 13.0528 49.2535C13.0528 36.1592 23.7347 25.5065 36.8657 25.5065C40.4753 25.5065 43.8986 26.3121 46.9662 27.7517C50.3249 29.3279 50.4445 33.7166 47.8171 36.3359C45.5248 38.6212 41.8679 38.6091 38.6725 38.0924ZM75.6873 18.8687C75.2573 19.2777 74.6827 19.4996 74.0894 19.4858C72.1155 19.4399 71.16 17.0499 72.5583 15.6559L73.3178 14.8988C73.87 14.3483 73.87 13.4558 73.3178 12.9062C72.7656 12.3558 71.8714 12.3558 71.3192 12.9062L70.5412 13.6819C69.3597 14.8597 67.3455 13.9951 67.3855 12.3273C67.3973 11.8362 67.604 11.3699 67.96 11.0312L71.9905 7.19714L71.9917 7.19641L71.9926 7.19519L72.3749 6.83093C73.1703 6.07288 74.4852 6.65393 74.4603 7.75244L74.3835 11.1393C74.3657 11.9171 74.9847 12.5615 75.764 12.5793C78.1142 12.634 79.223 15.5046 77.5199 17.125L75.6873 18.8687Z" fill="#00A3FF" fill-opacity="1.000000" fill-rule="nonzero"/>
</svg>
