<svg width="87.851196" height="87.852478" viewBox="0 0 87.8512 87.8525" fill="none" xmlns="http://www.w3.org/2000/svg" xmlns:xlink="http://www.w3.org/1999/xlink">
	<desc>
			Created with Pixso.
	</desc>
	<defs/>
	<path id="Vector" d="M87.4115 15.9945L71.8564 0.439514C71.2705 -0.146484 70.3215 -0.146484 69.7355 0.439514L49.0745 21.0999C45.1915 24.9825 38.9042 25.0081 34.99 21.1569L25.3535 11.6755C25.3405 11.6625 25.3235 11.6535 25.3094 11.6415C25.2545 11.5915 25.1956 11.5465 25.1324 11.5045C25.1025 11.4845 25.0745 11.4625 25.0435 11.4445C24.9695 11.4025 24.8905 11.3695 24.8085 11.3395C24.7875 11.3325 24.7695 11.3195 24.7485 11.3125L2.12048 4.24249C1.59045 4.07751 1.00745 4.21948 0.612549 4.61353C0.217529 5.00848 0.0744629 5.58948 0.241455 6.12152L7.3125 28.7485C7.35547 28.8855 7.42151 29.0115 7.50049 29.1295C7.52551 29.1675 7.55554 29.1985 7.5835 29.2335C7.62048 29.2795 7.65051 29.3295 7.6925 29.3705L17.1962 38.7211C21.1556 42.6166 21.1816 48.9926 17.254 52.9202L0.439453 69.7355C-0.146484 70.3215 -0.146484 71.2705 0.439453 71.8565L15.9955 87.4135C16.2765 87.6945 16.6584 87.8525 17.0565 87.8525C17.4545 87.8525 17.8354 87.6945 18.1176 87.4135L35.3367 70.1943C39.2025 66.3284 45.4564 66.2838 49.3772 70.0941L61.8795 82.2445C62.3407 82.6891 63.0109 82.8819 63.5134 83.2792C65.6617 84.978 68.2949 85.9075 71.0765 85.9075C74.3485 85.9075 77.4255 84.6335 79.7385 82.3195C84.2659 77.7921 84.493 70.5776 80.4362 65.7703C80.1062 65.3793 79.891 64.8844 79.5225 64.5295L67.2372 52.7048C63.2042 48.8231 63.1427 42.3871 67.1007 38.429L87.4125 18.1165C87.9976 17.5295 87.9976 16.5805 87.4115 15.9945ZM20.0081 12.9755C21.3613 13.3984 22.1256 14.8282 21.7255 16.1883C21.4762 17.0355 20.8135 17.6981 19.9663 17.9473L16.0995 19.0845C15.6105 19.2285 15.2275 19.6105 15.0835 20.1005L13.9473 23.9656C13.6981 24.8132 13.0353 25.4762 12.1876 25.7255C10.8273 26.1256 9.39734 25.3613 8.97437 24.0078L7.77246 20.1619C6.16113 15.0057 11.0046 10.162 16.1609 11.7733L20.0081 12.9755ZM9.98474 77.1602L6.44629 73.6216C4.88562 72.0607 4.88574 69.5303 6.44641 67.9695C8.0072 66.4088 10.5377 66.4088 12.0985 67.9695L15.9895 71.8605C16.2825 72.1535 16.6665 72.2995 17.0505 72.2995C17.4344 72.2995 17.8185 72.1535 18.1115 71.8605C18.6975 71.2745 18.6975 70.3255 18.1115 69.7395L14.1465 65.7745C12.6266 64.2546 12.6266 61.7904 14.1465 60.2705C15.6664 58.7506 18.1306 58.7506 19.6505 60.2705L23.6155 64.2355C23.9084 64.5285 24.2925 64.6745 24.6765 64.6745C25.0605 64.6745 25.4445 64.5285 25.7375 64.2355C26.3235 63.6495 26.3235 62.7005 25.7375 62.1145L22.8018 59.1788C20.7134 57.0905 20.7134 53.7046 22.8018 51.6163C24.869 49.549 28.2134 49.5251 30.3099 51.5627L33.2457 54.416C37.0464 58.1098 37.0896 64.1991 33.3419 67.9465L24.1268 77.1608C20.2214 81.0659 13.8898 81.0656 9.98474 77.1602ZM77.6145 80.1975C76.5635 81.2479 75.3208 81.9919 73.9983 82.4297C69.3496 83.9686 68.3516 77.8594 71.8141 74.3969C75.2769 70.9341 81.3867 71.9326 79.8477 76.5815C79.4097 77.9043 78.6654 79.1469 77.6145 80.1975ZM56.2108 72.5522L27.4666 44.6165L14.2633 31.6265C13.0753 30.4577 13.5806 28.4426 15.1794 27.9725C15.6685 27.8285 16.0515 27.4465 16.1956 26.9565C17.1536 23.6996 19.7007 21.1526 22.9575 20.1948L22.9585 20.1945C23.4475 20.0505 23.8304 19.6685 23.9745 19.1785C24.4552 17.5448 26.5043 17.0136 27.7181 18.2079L56.6825 46.7055L69.3843 58.9324C73.205 62.6103 73.2629 68.7078 69.5129 72.4576C65.8502 76.12 59.9253 76.1622 56.2108 72.5522ZM50.6718 36.587L48.0946 34.0512C45.948 31.939 45.934 28.482 48.0636 26.3525C50.181 24.235 53.614 24.235 55.7314 26.3525L58.6145 29.2355C58.9075 29.5285 59.2915 29.6745 59.6755 29.6745C60.0594 29.6745 60.4435 29.5285 60.7365 29.2355C61.3225 28.6505 61.3225 27.6995 60.7365 27.1145L57.1465 23.5245C55.4196 21.7975 55.4196 18.9975 57.1465 17.2705C58.8735 15.5435 61.6735 15.5435 63.4005 17.2705L66.9905 20.8605C67.2834 21.1535 67.6675 21.2995 68.0515 21.2995C68.4355 21.2995 68.8195 21.1535 69.1125 20.8605C69.6985 20.2755 69.6985 19.3245 69.1125 18.7395L66.5963 16.2233C64.2762 13.9033 64.2762 10.1417 66.5963 7.82166C68.9165 5.50146 72.6783 5.50159 74.9983 7.82196L77.5145 10.3386C81.2238 14.0483 81.2236 20.0625 77.5142 23.772L64.7567 36.53C60.8738 40.4131 54.5861 40.4386 50.6718 36.587Z" fill="#00A3FF" fill-opacity="1.000000" fill-rule="nonzero"/>
</svg>
